# xmcd
#
# Track frame offsets:
#	150
#	10603
#	26366
#	47459
#	72808
#	101931
#	129952
#	147406
#	156851
#	188502
#	206882
#	240744
#	263224
#	304035
#	327207
#
# Disc length: 4729 seconds
#
# Revision: 2
# Processed by: cddbd v1.5.1PL2 Copyright (c) Steve Scherf et al.
# Submitted via: EasyCDDAExtractor 8.0.2.1
#
DISCID=c712770f
DTITLE=Dio - Alabamahalle Munich 26-11-83
DYEAR=1983
DGENRE=Hard Rock
TTITLE0=Intro
TTITLE1=Stand Up And Shout
TTITLE2=Straight Through The Heart
TTITLE3=Shame On The Night
TTITLE4=Children Of The Sea
TTITLE5=Holy Diver
TTITLE6=Drum Solo
TTITLE7=Stargazer
TTITLE8=Heaven and Hell
TTITLE9=Guitar Solo
TTITLE10=Heaven and Hell Reprise
TTITLE11=Rainbow In The Dark
TTITLE12=Man On The Silver Mountain - Starstruck
TTITLE13=Evil Eyes
TTITLE14=Don't Talk To Strangers
EXTD=
EXTT0=
EXTT1=
EXTT2=
EXTT3=
EXTT4=
EXTT5=
EXTT6=
EXTT7=
EXTT8=
EXTT9=
EXTT10=
EXTT11=
EXTT12=
EXTT13=
EXTT14=
PLAYORDER=
